# xmcd CD database file
#
# Track frame offsets:
#	150
#	17490
#	36989
#	58154
#	81125
#	94936
#	110478
#	129643
#	145552
#	163332
#	185863
#	207264
#	225515
#
# Disc length: 3246 seconds
#
# Revision: 0
# Processed by: cddbd v1.5.2PL0 Copyright (c) Steve Scherf et al.
# Submitted via: CDex 1.51
#
DISCID=b50cac0d
DTITLE=Silke Hauck - Stay For Good
DYEAR=2009
DGENRE=Jazz
TTITLE0=Up And Down
TTITLE1=If The Wrong Word
TTITLE2=Good Turns To Bad
TTITLE3=Now That You've Gone
TTITLE4=Victim Of Love
TTITLE5=Stay For Good
TTITLE6=Down At The Waterfront
TTITLE7=Miss You
TTITLE8=Daylight
TTITLE9=Even Angels
TTITLE10=Where Have All The Sorrows Gone
TTITLE11=Cry For Tenderness
TTITLE12=Up And Down (Radiobomix)
EXTD=YEAR: 2009
EXTT0=
EXTT1=
EXTT2=
EXTT3=
EXTT4=
EXTT5=
EXTT6=
EXTT7=
EXTT8=
EXTT9=
EXTT10=
EXTT11=
EXTT12=
PLAYORDER=
